<svg width="48" height="48" viewBox="0 0 48 48" fill="none" xmlns="http://www.w3.org/2000/svg">
<g clip-path="url(#clip0_14_98)">
<g clip-path="url(#clip1_14_98)">
<path d="M36.75 0H11.25C5.0368 0 0 5.0368 0 11.25V36.75C0 42.9632 5.0368 48 11.25 48H36.75C42.9632 48 48 42.9632 48 36.75V11.25C48 5.0368 42.9632 0 36.75 0Z" fill="#2D333B"/>
<path d="M7.80682 38.0678H13.7727V23.5791L5.25 17.1871V35.511C5.25 36.9257 6.3963 38.0678 7.80682 38.0678Z" fill="white"/>
<path d="M34.2272 38.0678H40.1932C41.6079 38.0678 42.75 36.9216 42.75 35.511V17.1871L34.2272 23.5791" fill="#EBEBEB"/>
<path d="M34.2272 12.4996V23.5791L42.75 17.1871V13.778C42.75 10.616 39.1406 8.81347 36.6137 10.7098" fill="white"/>
<path d="M13.7727 23.5791V12.4996L24 20.1701L34.2272 12.4996V23.5791L24 31.2497" fill="#EDEDED"/>
<path d="M5.25 13.778V17.1871L13.7727 23.5791V12.4996L11.3864 10.7098C8.85512 8.81347 5.25 10.616 5.25 13.778Z" fill="#CCCCCC"/>
</g>
</g>
<defs>
<clipPath id="clip0_14_98">
<rect width="48" height="48" fill="white"/>
</clipPath>
<clipPath id="clip1_14_98">
<rect width="48" height="48" fill="white"/>
</clipPath>
</defs>
</svg>
