<svg width="48" height="48" viewBox="0 0 48 48" fill="none" xmlns="http://www.w3.org/2000/svg">
<g clip-path="url(#clip0_14_116)">
<path d="M36.75 0H11.25C5.0368 0 0 5.0368 0 11.25V36.75C0 42.9632 5.0368 48 11.25 48H36.75C42.9632 48 48 42.9632 48 36.75V11.25C48 5.0368 42.9632 0 36.75 0Z" fill="#2D333B"/>
<path d="M24.0017 5.25C18.9096 5.25 18.2704 5.27228 16.2704 5.36329C14.2743 5.45469 12.9118 5.77071 11.7196 6.23439C10.4864 6.71329 9.44027 7.35394 8.39809 8.39651C7.3551 9.43871 6.71447 10.4848 6.234 11.7176C5.76915 12.9102 5.45274 14.2731 5.36289 16.2685C5.27344 18.2685 5.25 18.9079 5.25 24.0002C5.25 29.0925 5.27265 29.7296 5.36329 31.7295C5.45509 33.7256 5.7711 35.0882 6.23439 36.2803C6.71368 37.5137 7.35431 38.5597 8.39691 39.6019C9.43871 40.6449 10.4848 41.2871 11.7172 41.766C12.9102 42.2297 14.2731 42.5456 16.2689 42.6371C18.2689 42.7281 18.9075 42.7504 23.9994 42.7504C29.0921 42.7504 29.7292 42.7281 31.7291 42.6371C33.7253 42.5456 35.0893 42.2297 36.2824 41.766C37.5152 41.2871 38.5597 40.6449 39.6015 39.6019C40.6446 38.5597 41.2851 37.5137 41.7656 36.2809C42.2265 35.0882 42.543 33.7253 42.6367 31.7299C42.7266 29.73 42.75 29.0925 42.75 24.0002C42.75 18.9079 42.7266 18.2689 42.6367 16.2689C42.543 14.2727 42.2265 12.9102 41.7656 11.718C41.2851 10.4848 40.6446 9.43871 39.6015 8.39651C38.5586 7.35354 37.5156 6.71291 36.2812 6.23439C35.0859 5.77071 33.7226 5.45469 31.7265 5.36329C29.7264 5.27228 29.0897 5.25 23.9959 5.25H24.0017ZM22.3196 8.62894C22.8189 8.62817 23.376 8.62894 24.0017 8.62894C29.0081 8.62894 29.6014 8.64692 31.5784 8.73675C33.4065 8.82036 34.3988 9.12581 35.0597 9.38246C35.9347 9.72231 36.5586 10.1286 37.2144 10.7848C37.8707 11.4411 38.2768 12.0661 38.6175 12.9411C38.8742 13.6013 39.18 14.5935 39.2633 16.4216C39.3531 18.3982 39.3726 18.9919 39.3726 23.9959C39.3726 28.9999 39.3531 29.5937 39.2633 31.5701C39.1796 33.3982 38.8742 34.3905 38.6175 35.0507C38.2778 35.9257 37.8707 36.5488 37.2144 37.2047C36.5582 37.8609 35.9351 38.2671 35.0597 38.607C34.3995 38.8648 33.4065 39.1695 31.5784 39.2531C29.6017 39.3429 29.0081 39.3624 24.0017 39.3624C18.9951 39.3624 18.4017 39.3429 16.4251 39.2531C14.597 39.1688 13.6048 38.8633 12.9434 38.6066C12.0684 38.2667 11.4434 37.8606 10.7872 37.2043C10.1309 36.5481 9.72465 35.9246 9.38402 35.0492C9.12739 34.389 8.82152 33.3967 8.73833 31.5686C8.64848 29.592 8.63051 28.9984 8.63051 23.9912C8.63051 18.9842 8.64848 18.3935 8.73833 16.4169C8.82191 14.5888 9.12739 13.5966 9.38402 12.9356C9.72388 12.0606 10.1309 11.4356 10.7872 10.7794C11.4434 10.1231 12.0684 9.71685 12.9434 9.37622C13.6044 9.11841 14.597 8.8137 16.4251 8.72972C18.1548 8.65161 18.8252 8.62817 22.3196 8.62425V8.62894ZM34.0104 11.7423C32.7683 11.7423 31.7604 12.7489 31.7604 13.9915C31.7604 15.2337 32.7683 16.2415 34.0104 16.2415C35.2526 16.2415 36.2604 15.2337 36.2604 13.9915C36.2604 12.7493 35.2526 11.7415 34.0104 11.7415V11.7423ZM24.0017 14.3712C18.6841 14.3712 14.3728 18.6826 14.3728 24.0002C14.3728 29.3179 18.6841 33.6272 24.0017 33.6272C29.3194 33.6272 33.6292 29.3179 33.6292 24.0002C33.6292 18.6826 29.319 14.3712 24.0013 14.3712H24.0017ZM24.0017 17.7501C27.4534 17.7501 30.2518 20.5481 30.2518 24.0002C30.2518 27.4519 27.4534 30.2503 24.0017 30.2503C20.5498 30.2503 17.7517 27.4519 17.7517 24.0002C17.7517 20.5481 20.5498 17.7501 24.0017 17.7501Z" fill="white"/>
</g>
<defs>
<clipPath id="clip0_14_116">
<rect width="48" height="48" fill="white"/>
</clipPath>
</defs>
</svg>
