<svg width="217" height="48" viewBox="0 0 217 48" fill="none" xmlns="http://www.w3.org/2000/svg">
<g clip-path="url(#clip0_14_74)">
<g clip-path="url(#clip1_14_74)">
<path d="M36.75 0H11.25C5.0368 0 0 5.0368 0 11.25V36.75C0 42.9632 5.0368 48 11.25 48H36.75C42.9632 48 48 42.9632 48 36.75V11.25C48 5.0368 42.9632 0 36.75 0Z" fill="#2D333B"/>
<path fill-rule="evenodd" clip-rule="evenodd" d="M15.5625 20.625C16.6873 16.1252 19.5002 13.875 24 13.875C30.75 13.875 31.5938 18.9375 34.9688 19.7812C37.2189 20.3439 39.1875 19.5002 40.875 17.25C39.7502 21.7498 36.9373 24 32.4375 24C25.6875 24 24.8438 18.9375 21.4688 18.0938C19.2186 17.5311 17.25 18.3748 15.5625 20.625ZM7.125 30.75C8.24983 26.2502 11.0627 24 15.5625 24C22.3125 24 23.1562 29.0625 26.5312 29.9062C28.7814 30.4689 30.75 29.6252 32.4375 27.375C31.3127 31.8748 28.4998 34.125 24 34.125C17.25 34.125 16.4062 29.0625 13.0312 28.2188C10.7811 27.6561 8.8125 28.4998 7.125 30.75Z" fill="url(#paint0_linear_14_74)"/>
</g>
<g clip-path="url(#clip2_14_74)">
<path d="M92.75 0H67.25C61.0368 0 56 5.0368 56 11.25V36.75C56 42.9632 61.0368 48 67.25 48H92.75C98.9632 48 104 42.9632 104 36.75V11.25C104 5.0368 98.9632 0 92.75 0Z" fill="#2D333B"/>
<g filter="url(#filter0_d_14_74)">
<path d="M80.7444 36.7794C86.3086 36.7794 89.6617 34.0549 89.6617 29.5613C89.6617 26.1643 87.2694 23.7052 83.7168 23.3158V23.1744C86.3268 22.7498 88.3749 20.3259 88.3749 17.6192C88.3749 13.7624 85.3301 11.25 80.69 11.25H70.25V36.7794H80.7444ZM74.31 14.4876H79.7113C82.6475 14.4876 84.3149 15.7968 84.3149 18.1675C84.3149 20.6976 82.3756 22.1128 78.8594 22.1128H74.31V14.4876ZM74.31 33.5419V25.1383H79.6749C83.5175 25.1383 85.5112 26.5536 85.5112 29.3136C85.5112 32.0734 83.5719 33.5419 79.9106 33.5419H74.31Z" fill="white"/>
<path d="M80.7444 36.7794C86.3086 36.7794 89.6617 34.0549 89.6617 29.5613C89.6617 26.1643 87.2694 23.7052 83.7168 23.3158V23.1744C86.3268 22.7498 88.3749 20.3259 88.3749 17.6192C88.3749 13.7624 85.3301 11.25 80.69 11.25H70.25V36.7794H80.7444ZM74.31 14.4876H79.7113C82.6475 14.4876 84.3149 15.7968 84.3149 18.1675C84.3149 20.6976 82.3756 22.1128 78.8594 22.1128H74.31V14.4876ZM74.31 33.5419V25.1383H79.6749C83.5175 25.1383 85.5112 26.5536 85.5112 29.3136C85.5112 32.0734 83.5719 33.5419 79.9106 33.5419H74.31Z" stroke="white" stroke-width="0.375"/>
</g>
</g>
<g clip-path="url(#clip3_14_74)">
<path d="M149.25 0H123.75C117.537 0 112.5 5.0368 112.5 11.25V36.75C112.5 42.9632 117.537 48 123.75 48H149.25C155.463 48 160.5 42.9632 160.5 36.75V11.25C160.5 5.0368 155.463 0 149.25 0Z" fill="#2D333B"/>
<mask id="mask0_14_74" style="mask-type:luminance" maskUnits="userSpaceOnUse" x="117" y="9" width="39" height="30">
<path d="M155.25 9.9375H117.75V38.0454H155.25V9.9375Z" fill="white"/>
</mask>
<g mask="url(#mask0_14_74)">
<path d="M150.02 26.093C148.712 26.0998 147.576 26.4148 146.625 26.8802C146.276 26.1889 145.926 25.5727 145.865 25.1209C145.796 24.5938 145.714 24.272 145.796 23.6422C145.878 23.0124 146.248 22.1158 146.241 22.0474C146.234 21.9787 146.159 21.6572 145.406 21.6502C144.653 21.6435 144.003 21.794 143.927 21.9926C143.852 22.191 143.708 22.6429 143.613 23.1084C143.483 23.793 142.106 26.2369 141.319 27.5169C141.066 27.0172 140.847 26.579 140.799 26.2299C140.731 25.7029 140.648 25.3811 140.731 24.7513C140.813 24.1215 141.182 23.2247 141.176 23.1562C141.169 23.0878 141.093 22.766 140.34 22.7593C139.587 22.7524 138.937 22.9029 138.862 23.1015C138.786 23.3 138.704 23.7656 138.547 24.2173C138.389 24.6692 136.562 28.7492 136.082 29.8033C135.836 30.344 135.624 30.7753 135.473 31.0697C135.473 31.0697 135.466 31.0903 135.446 31.1244C135.316 31.3777 135.24 31.5146 135.24 31.5146C135.24 31.5146 135.24 31.5146 135.24 31.5215C135.138 31.7064 135.028 31.8774 134.973 31.8774C134.932 31.8774 134.857 31.3847 134.987 30.7138C135.261 29.2967 135.911 27.0924 135.905 27.0172C135.905 26.9762 136.028 26.5927 135.48 26.3942C134.946 26.1956 134.754 26.5243 134.706 26.5243C134.659 26.5243 134.624 26.6407 134.624 26.6407C134.624 26.6407 135.22 24.1625 133.488 24.1625C132.406 24.1625 130.914 25.3468 130.175 26.4148C129.709 26.6681 128.717 27.2089 127.656 27.7907C127.252 28.0166 126.834 28.2425 126.444 28.4548C126.417 28.4274 126.389 28.3931 126.362 28.3657C124.267 26.1272 120.392 24.546 120.557 21.5407C120.618 20.4454 120.995 17.5703 127.998 14.079C133.762 11.2381 138.348 12.0254 139.142 13.771C140.279 16.2628 136.685 20.8903 130.729 21.5612C128.456 21.8145 127.265 20.9383 126.964 20.6098C126.649 20.2674 126.601 20.247 126.485 20.3154C126.293 20.418 126.417 20.726 126.485 20.904C126.663 21.3695 127.395 22.191 128.634 22.5949C129.73 22.9509 132.393 23.1495 135.617 21.9035C139.225 20.507 142.045 16.6256 141.217 13.3739C140.388 10.0744 134.912 8.98594 129.73 10.8274C126.649 11.9227 123.309 13.6478 120.906 15.8931C118.051 18.5629 117.599 20.8835 117.784 21.8555C118.448 25.3057 123.206 27.551 125.109 29.2145C125.013 29.2693 124.924 29.3173 124.849 29.3584C123.897 29.8307 120.269 31.7269 119.366 33.7327C118.339 36.0054 119.53 37.6346 120.317 37.8536C122.761 38.5314 125.273 37.3129 126.622 35.3002C127.97 33.2876 127.806 30.6727 127.183 29.4748C127.176 29.4611 127.17 29.4474 127.156 29.4337C127.402 29.2899 127.656 29.1394 127.902 28.9955C128.388 28.7081 128.867 28.4411 129.278 28.2219C129.045 28.8587 128.874 29.6184 128.792 30.7138C128.689 32.0008 129.216 33.671 129.908 34.3282C130.216 34.6157 130.579 34.6226 130.811 34.6226C131.619 34.6226 131.982 33.9517 132.386 33.1577C132.879 32.1855 133.324 31.056 133.324 31.056C133.324 31.056 132.769 34.1092 134.275 34.1092C134.823 34.1092 135.377 33.3973 135.624 33.0345C135.624 33.0412 135.624 33.0412 135.624 33.0412C135.624 33.0412 135.638 33.0208 135.665 32.9728C135.72 32.8837 135.754 32.829 135.754 32.829C135.754 32.829 135.754 32.8222 135.754 32.8153C135.973 32.432 136.466 31.5626 137.198 30.1181C138.143 28.2562 139.053 25.9288 139.053 25.9288C139.053 25.9288 139.136 26.4969 139.416 27.4415C139.58 27.9962 139.923 28.6054 140.197 29.1941C139.978 29.5022 139.841 29.6732 139.841 29.6732C139.841 29.6732 139.841 29.6732 139.847 29.6801C139.67 29.9128 139.478 30.1661 139.266 30.4125C138.519 31.3025 137.63 32.3225 137.506 32.6169C137.363 32.966 137.397 33.2192 137.671 33.4247C137.869 33.5752 138.225 33.5957 138.588 33.5752C139.259 33.5272 139.731 33.363 139.964 33.2602C140.327 33.1303 140.751 32.9317 141.148 32.6374C141.881 32.0966 142.326 31.323 142.285 30.303C142.264 29.7416 142.079 29.1804 141.853 28.6532C141.922 28.5574 141.983 28.4615 142.052 28.3657C143.209 26.6749 144.105 24.8197 144.105 24.8197C144.105 24.8197 144.188 25.3879 144.468 26.3327C144.605 26.8117 144.886 27.332 145.132 27.8387C144.044 28.7218 143.373 29.7485 143.133 30.4194C142.702 31.6654 143.038 32.2265 143.674 32.3567C143.962 32.4184 144.372 32.2815 144.674 32.1514C145.057 32.0282 145.509 31.8159 145.94 31.5009C146.672 30.9602 147.378 30.2072 147.337 29.1872C147.316 28.7218 147.193 28.263 147.022 27.818C147.946 27.4348 149.137 27.2225 150.657 27.4005C153.915 27.7839 154.559 29.817 154.435 30.6727C154.312 31.5283 153.628 31.9939 153.402 32.1377C153.176 32.2815 153.101 32.3293 153.121 32.432C153.149 32.5826 153.258 32.5757 153.45 32.5483C153.717 32.5005 155.161 31.857 155.223 30.2825C155.325 28.2699 153.409 26.0724 150.02 26.093ZM124.883 34.5679C123.802 35.7452 122.295 36.1903 121.645 35.8138C120.947 35.4097 121.221 33.671 122.549 32.4251C123.357 31.6654 124.397 30.9602 125.088 30.5289C125.246 30.4331 125.479 30.2962 125.759 30.125C125.807 30.0977 125.835 30.084 125.835 30.084C125.889 30.0497 125.944 30.0155 125.999 29.9812C126.485 31.7612 126.019 33.3289 124.883 34.5679ZM132.755 29.2145C132.379 30.132 131.592 32.4799 131.113 32.3499C130.702 32.2402 130.449 30.4605 131.03 28.7012C131.325 27.818 131.948 26.7639 132.311 26.3531C132.899 25.6959 133.55 25.4769 133.707 25.7439C133.906 26.093 132.988 28.6395 132.755 29.2145ZM139.252 32.3225C139.094 32.4047 138.944 32.4594 138.875 32.4184C138.827 32.391 138.944 32.2815 138.944 32.2815C138.944 32.2815 139.759 31.4051 140.08 31.0082C140.265 30.7753 140.484 30.5015 140.717 30.1935C140.717 30.2209 140.717 30.2552 140.717 30.2825C140.717 31.3299 139.704 32.0349 139.252 32.3225ZM144.263 31.1792C144.146 31.097 144.167 30.8233 144.557 29.9675C144.708 29.6321 145.064 29.0709 145.673 28.53C145.742 28.7492 145.79 28.9612 145.783 29.1598C145.776 30.4811 144.831 30.9739 144.263 31.1792Z" fill="white"/>
</g>
</g>
<g clip-path="url(#clip4_14_74)">
<path d="M205.5 0H180C173.787 0 168.75 5.0368 168.75 11.25V36.75C168.75 42.9632 173.787 48 180 48H205.5C211.713 48 216.75 42.9632 216.75 36.75V11.25C216.75 5.0368 211.713 0 205.5 0Z" fill="#2D333B"/>
<path d="M192.75 5.625C182.396 5.625 174 14.0195 174 24.3752C174 32.6595 179.372 39.6878 186.823 42.1671C187.76 42.3407 188.104 41.7604 188.104 41.2652C188.104 40.818 188.086 39.3411 188.078 37.7743C182.862 38.9085 181.761 35.562 181.761 35.562C180.908 33.3947 179.679 32.8185 179.679 32.8185C177.978 31.6547 179.807 31.6787 179.807 31.6787C181.69 31.8109 182.682 33.6109 182.682 33.6109C184.354 36.4774 187.068 35.6486 188.138 35.1696C188.306 33.9576 188.792 33.1305 189.328 32.6623C185.164 32.1881 180.786 30.5803 180.786 23.3959C180.786 21.3488 181.518 19.6761 182.718 18.363C182.523 17.8908 181.881 15.9837 182.899 13.401C182.899 13.401 184.474 12.8971 188.057 15.323C189.553 14.9075 191.157 14.6992 192.75 14.6921C194.344 14.6992 195.949 14.9075 197.447 15.323C201.026 12.8971 202.598 13.401 202.598 13.401C203.619 15.9837 202.977 17.8908 202.782 18.363C203.984 19.6761 204.712 21.3488 204.712 23.3959C204.712 30.5976 200.326 32.1833 196.15 32.6473C196.823 33.2293 197.422 34.3703 197.422 36.1196C197.422 38.6284 197.4 40.6476 197.4 41.2652C197.4 41.7641 197.738 42.3488 198.688 42.1646C206.134 39.6825 211.5 32.6567 211.5 24.3752C211.5 14.0195 203.105 5.625 192.75 5.625ZM181.023 32.3349C180.981 32.4281 180.835 32.4561 180.701 32.3921C180.565 32.331 180.489 32.2039 180.533 32.1105C180.573 32.0145 180.72 31.9879 180.856 32.0522C180.992 32.1133 181.07 32.2416 181.023 32.3349ZM181.945 33.1579C181.855 33.2409 181.681 33.2023 181.562 33.0713C181.439 32.9406 181.416 32.7658 181.507 32.6816C181.599 32.5988 181.769 32.6376 181.892 32.7683C182.014 32.9006 182.038 33.0741 181.945 33.1579ZM182.578 34.2109C182.463 34.2908 182.275 34.2159 182.159 34.0491C182.044 33.8824 182.044 33.6825 182.161 33.6023C182.278 33.5222 182.463 33.5942 182.58 33.7598C182.695 33.9293 182.695 34.1293 182.578 34.2109ZM183.648 35.4304C183.545 35.5436 183.326 35.5133 183.166 35.3586C183.002 35.2074 182.956 34.9929 183.059 34.8795C183.163 34.7659 183.383 34.7979 183.545 34.9513C183.708 35.1021 183.757 35.3183 183.648 35.4304ZM185.031 35.8419C184.985 35.9889 184.774 36.0557 184.562 35.9933C184.35 35.9289 184.211 35.757 184.254 35.6085C184.298 35.4608 184.51 35.3912 184.724 35.4579C184.936 35.5219 185.075 35.6927 185.031 35.8419ZM186.605 36.0167C186.61 36.1712 186.43 36.2994 186.207 36.3023C185.983 36.3073 185.801 36.1821 185.799 36.03C185.799 35.8738 185.975 35.7469 186.199 35.7431C186.422 35.7388 186.605 35.8629 186.605 36.0167ZM188.151 35.9574C188.177 36.1082 188.023 36.2633 187.801 36.3045C187.583 36.3443 187.382 36.2511 187.354 36.1014C187.327 35.9468 187.485 35.7919 187.702 35.7518C187.924 35.7133 188.123 35.8041 188.151 35.9574Z" fill="white"/>
</g>
</g>
<defs>
<filter id="filter0_d_14_74" x="67.0625" y="8.8125" width="25.7867" height="31.9044" filterUnits="userSpaceOnUse" color-interpolation-filters="sRGB">
<feFlood flood-opacity="0" result="BackgroundImageFix"/>
<feColorMatrix in="SourceAlpha" type="matrix" values="0 0 0 0 0 0 0 0 0 0 0 0 0 0 0 0 0 0 127 0" result="hardAlpha"/>
<feOffset dy="0.75"/>
<feGaussianBlur stdDeviation="1.5"/>
<feColorMatrix type="matrix" values="0 0 0 0 0 0 0 0 0 0 0 0 0 0 0 0 0 0 0.15 0"/>
<feBlend mode="normal" in2="BackgroundImageFix" result="effect1_dropShadow_14_74"/>
<feBlend mode="normal" in="SourceGraphic" in2="effect1_dropShadow_14_74" result="shape"/>
</filter>
<linearGradient id="paint0_linear_14_74" x1="16.2187" y1="13.875" x2="30.6562" y2="34.7812" gradientUnits="userSpaceOnUse">
<stop stop-color="white"/>
<stop offset="1" stop-color="white"/>
</linearGradient>
<clipPath id="clip0_14_74">
<rect width="216.75" height="48" fill="white"/>
</clipPath>
<clipPath id="clip1_14_74">
<rect width="48" height="48" fill="white"/>
</clipPath>
<clipPath id="clip2_14_74">
<rect width="48" height="48" fill="white" transform="translate(56)"/>
</clipPath>
<clipPath id="clip3_14_74">
<rect width="48" height="48" fill="white" transform="translate(112.5)"/>
</clipPath>
<clipPath id="clip4_14_74">
<rect width="48" height="48" fill="white" transform="translate(168.75)"/>
</clipPath>
</defs>
</svg>
