<svg width="386" height="48" viewBox="0 0 386 48" fill="none" xmlns="http://www.w3.org/2000/svg">
<g clip-path="url(#clip0_14_31)">
<g clip-path="url(#clip1_14_31)">
<path d="M36.75 0H11.25C5.0368 0 0 5.0368 0 11.25V36.75C0 42.9632 5.0368 48 11.25 48H36.75C42.9632 48 48 42.9632 48 36.75V11.25C48 5.0368 42.9632 0 36.75 0Z" fill="#2D333B"/>
<path d="M9 7.125L10.6143 25.2362H31.3725L30.6759 33.0043L23.9923 34.8114L17.3212 33.0069L16.8752 28.0191H10.8635L11.7232 37.6343L23.9908 41.0415L36.2739 37.6343L37.9207 19.2478H16.092L15.5439 13.1147H38.4452H38.4636L39 7.125H9Z" fill="white"/>
<path d="M24 7.125H9L10.6143 25.2362H24V19.2478H16.092L15.5439 13.1146H24V7.125Z" fill="#EBEBEB"/>
<path d="M24 34.8088L23.9923 34.8114L17.3212 33.0069L16.8752 28.019H10.8635L11.7232 37.6342L23.9908 41.0415L24 41.0389V34.8088Z" fill="#EBEBEB"/>
</g>
<g clip-path="url(#clip2_14_31)">
<path d="M93 0H67.5C61.2868 0 56.25 5.0368 56.25 11.25V36.75C56.25 42.9632 61.2868 48 67.5 48H93C99.2132 48 104.25 42.9632 104.25 36.75V11.25C104.25 5.0368 99.2132 0 93 0Z" fill="#2D333B"/>
<path d="M66.3286 19.2471L66.8654 25.2362H80.268V19.2471H66.3286Z" fill="#EBEBEB"/>
<path d="M80.2678 7.125H80.2472H65.25L65.7944 13.1142H80.2678V7.125Z" fill="#EBEBEB"/>
<path d="M80.2678 41.0327V34.8015L80.2416 34.8085L73.5715 33.0075L73.1451 28.2308H69.9039H67.133L67.972 37.6347L80.2402 41.0404L80.2678 41.0327Z" fill="#EBEBEB"/>
<path d="M87.6221 25.2362L86.9269 33.0036L80.2472 34.8066V41.0374L92.5253 37.6346L92.6153 36.6227L94.0226 20.8554L94.1687 19.2471L95.25 7.125H80.2472V13.1142H88.6864L88.1415 19.2471H80.2472V25.2362H87.6221Z" fill="white"/>
</g>
<g clip-path="url(#clip3_14_31)">
<path d="M149.25 0H123.75C117.537 0 112.5 5.0368 112.5 11.25V36.75C112.5 42.9632 117.537 48 123.75 48H149.25C155.463 48 160.5 42.9632 160.5 36.75V11.25C160.5 5.0368 155.463 0 149.25 0Z" fill="#2D333B"/>
<path d="M125.121 40.1122L128.794 37.8892C129.503 39.1457 130.148 40.2088 131.694 40.2088C133.176 40.2088 134.11 39.6291 134.11 37.3738V22.0367H138.621V37.4376C138.621 42.1095 135.883 44.2361 131.887 44.2361C128.279 44.2361 126.184 42.3673 125.121 40.1119" fill="white"/>
<path d="M141.071 39.6289L144.744 37.5024C145.711 39.0814 146.968 40.2412 149.191 40.2412C151.06 40.2412 152.252 39.3067 152.252 38.0179C152.252 36.4714 151.027 35.9235 148.965 35.0216L147.838 34.5381C144.583 33.1528 142.424 31.4128 142.424 27.7397C142.424 24.3564 145.002 21.7787 149.03 21.7787C151.898 21.7787 153.96 22.7777 155.442 25.3875L151.93 27.6429C151.156 26.2575 150.319 25.7098 149.03 25.7098C147.709 25.7098 146.871 26.5476 146.871 27.6429C146.871 28.9961 147.709 29.544 149.642 30.3819L150.77 30.8651C154.604 32.5086 156.763 34.1837 156.763 37.9534C156.763 42.0135 153.573 44.2365 149.288 44.2365C145.099 44.2365 142.392 42.2389 141.071 39.6289Z" fill="white"/>
</g>
<g clip-path="url(#clip4_14_31)">
<path d="M205.5 0H180C173.787 0 168.75 5.0368 168.75 11.25V36.75C168.75 42.9632 173.787 48 180 48H205.5C211.713 48 216.75 42.9632 216.75 36.75V11.25C216.75 5.0368 211.713 0 205.5 0Z" fill="#2D333B"/>
<path d="M192.75 27.5533C194.682 27.5533 196.248 25.9871 196.248 24.0553C196.248 22.1235 194.682 20.5573 192.75 20.5573C190.818 20.5573 189.252 22.1235 189.252 24.0553C189.252 25.9871 190.818 27.5533 192.75 27.5533Z" fill="white"/>
<path fill-rule="evenodd" clip-rule="evenodd" d="M192.75 16.9431C197.447 16.9431 201.81 17.617 205.099 18.7495C209.063 20.1141 211.5 22.1824 211.5 24.0553C211.5 26.007 208.917 28.2043 204.661 29.6145C201.443 30.6806 197.209 31.2371 192.75 31.2371C188.179 31.2371 183.851 30.7147 180.597 29.6027C176.48 28.1955 174 25.9699 174 24.0553C174 22.1976 176.327 20.1452 180.235 18.7828C183.537 17.6316 188.007 16.9431 192.75 16.9431H192.75Z" stroke="white" stroke-width="1.67081"/>
<path fill-rule="evenodd" clip-rule="evenodd" d="M186.559 20.5196C188.905 16.4513 191.669 13.0084 194.293 10.7245C197.455 7.97261 200.465 6.8949 202.087 7.83043C203.777 8.80543 204.391 12.1406 203.486 16.5321C202.803 19.8523 201.169 23.7984 198.941 27.6606C196.658 31.6202 194.043 35.1088 191.454 37.3716C188.179 40.2351 185.012 41.2714 183.353 40.3149C181.744 39.3876 181.128 36.3461 181.9 32.2802C182.553 28.8446 184.19 24.6279 186.558 20.5196H186.559Z" stroke="white" stroke-width="1.67081"/>
<path fill-rule="evenodd" clip-rule="evenodd" d="M186.565 27.6709C184.212 23.607 182.61 19.4929 181.941 16.0784C181.136 11.9645 181.705 8.81916 183.326 7.88091C185.015 6.90306 188.211 8.03738 191.564 11.0144C194.099 13.2652 196.702 16.651 198.936 20.5093C201.226 24.4652 202.942 28.473 203.61 31.8458C204.455 36.114 203.771 39.3752 202.114 40.3343C200.506 41.265 197.564 40.2797 194.427 37.5801C191.777 35.2993 188.941 31.7753 186.565 27.6709Z" stroke="white" stroke-width="1.67081"/>
</g>
<g clip-path="url(#clip5_14_31)">
<path d="M261.75 0H236.25C230.037 0 225 5.0368 225 11.25V36.75C225 42.9632 230.037 48 236.25 48H261.75C267.963 48 273 42.9632 273 36.75V11.25C273 5.0368 267.963 0 261.75 0Z" fill="#2D333B"/>
<path d="M247.477 5.83432C248.399 5.3064 249.601 5.30405 250.522 5.83432C255.157 8.45353 259.794 11.0687 264.429 13.6895C265.301 14.1805 265.884 15.1507 265.875 16.1551V31.9136C265.881 32.9597 265.241 33.9531 264.321 34.4329C259.701 37.0378 255.083 39.6457 250.463 42.2507C249.522 42.7888 248.297 42.7474 247.385 42.165C246 41.3621 244.613 40.563 243.227 39.7609C242.944 39.5921 242.625 39.4579 242.425 39.1834C242.602 38.9452 242.918 38.9156 243.175 38.8116C243.753 38.6276 244.284 38.3325 244.815 38.0462C244.949 37.9543 245.113 37.9896 245.242 38.0717C246.426 38.7508 247.601 39.4498 248.789 40.1224C249.042 40.2688 249.299 40.0744 249.516 39.9536C254.05 37.3911 258.589 34.8384 263.122 32.2751C263.29 32.1943 263.383 32.016 263.369 31.8321C263.372 26.6336 263.37 21.4344 263.371 16.236C263.39 16.0272 263.269 15.8353 263.081 15.7498C258.476 13.1569 253.874 10.5601 249.271 7.96654C249.108 7.85424 248.892 7.85396 248.729 7.96569C244.125 10.5601 239.524 13.1593 234.921 15.7521C234.733 15.8377 234.607 16.0265 234.629 16.236C234.63 21.4344 234.629 26.6336 234.629 31.8328C234.613 32.0167 234.713 32.1913 234.879 32.2704C236.108 32.967 237.338 33.6587 238.567 34.353C239.26 34.7256 240.11 34.9472 240.873 34.6616C241.546 34.4201 242.018 33.7329 242.005 33.0182C242.012 27.8501 242.002 22.6813 242.01 17.514C241.993 17.2845 242.211 17.095 242.434 17.1166C243.024 17.1126 243.615 17.1086 244.205 17.1182C244.452 17.1126 244.621 17.3596 244.591 17.5908C244.589 22.7916 244.597 27.9924 244.587 33.1931C244.589 34.5793 244.019 36.0876 242.737 36.7657C241.158 37.5838 239.205 37.4104 237.645 36.6259C236.294 35.9516 235.005 35.1559 233.678 34.4336C232.756 33.9564 232.119 32.9591 232.125 31.9138V16.1551C232.115 15.1299 232.722 14.1421 233.621 13.6583C238.24 11.0514 242.859 8.44239 247.477 5.83432Z" fill="white"/>
<path d="M251.507 16.7504C253.522 16.6206 255.679 16.6736 257.492 17.666C258.896 18.4267 259.674 20.023 259.698 21.5824C259.659 21.7926 259.439 21.9086 259.238 21.8942C258.654 21.8935 258.069 21.9023 257.485 21.8903C257.237 21.8998 257.093 21.6713 257.062 21.4521C256.894 20.7058 256.487 19.9669 255.784 19.6069C254.706 19.0673 253.456 19.0945 252.281 19.1057C251.423 19.1511 250.5 19.2255 249.773 19.7301C249.214 20.1124 249.045 20.8841 249.244 21.5057C249.432 21.952 249.947 22.096 250.369 22.2287C252.797 22.8638 255.369 22.8004 257.751 23.6361C258.737 23.9768 259.702 24.6392 260.039 25.6716C260.481 27.0553 260.287 28.7091 259.303 29.8198C258.504 30.7339 257.342 31.2315 256.182 31.5017C254.639 31.8458 253.038 31.8546 251.471 31.7018C249.998 31.5338 248.465 31.1468 247.328 30.1431C246.355 29.2986 245.88 27.9827 245.927 26.713C245.939 26.4985 246.152 26.3488 246.358 26.3665C246.946 26.3618 247.535 26.3601 248.123 26.3674C248.359 26.3505 248.533 26.5538 248.545 26.7754C248.654 27.4862 248.921 28.2325 249.541 28.6538C250.737 29.4257 252.238 29.3728 253.608 29.3944C254.743 29.3441 256.017 29.329 256.943 28.5788C257.432 28.1509 257.577 27.435 257.445 26.8193C257.302 26.2993 256.758 26.0571 256.291 25.8986C253.894 25.1406 251.292 25.4156 248.918 24.5582C247.955 24.2177 247.023 23.5738 246.653 22.5838C246.136 21.1826 246.373 19.4494 247.46 18.3762C248.521 17.3085 250.052 16.8975 251.507 16.7504Z" fill="white"/>
</g>
<g clip-path="url(#clip6_14_31)">
<path d="M318 0H292.5C286.287 0 281.25 5.0368 281.25 11.25V36.75C281.25 42.9632 286.287 48 292.5 48H318C324.213 48 329.25 42.9632 329.25 36.75V11.25C329.25 5.0368 324.213 0 318 0Z" fill="#2D333B"/>
<path d="M324 34.3007C323.454 34.5075 322.852 34.5069 322.306 34.2995C321.76 34.092 321.31 33.6919 321.039 33.1747C319.34 30.6309 317.463 28.2019 315.66 25.7207L314.878 24.6782C312.73 27.5556 310.582 30.3182 308.623 33.1852C308.367 33.6795 307.941 34.0641 307.423 34.2673C306.905 34.4707 306.331 34.4788 305.808 34.2904L313.867 23.4793L306.371 13.7107C306.91 13.5158 307.501 13.5132 308.042 13.7031C308.583 13.893 309.042 14.2639 309.342 14.7532C311.083 17.297 313.012 19.7261 314.93 22.3012C316.859 19.7469 318.766 17.3074 320.549 14.7845C320.806 14.2983 321.232 13.9234 321.748 13.7311C322.263 13.5389 322.831 13.5428 323.343 13.7419L320.434 17.5993C319.131 19.3194 317.849 21.0501 316.494 22.7285C316.384 22.8264 316.297 22.9461 316.237 23.0799C316.177 23.2138 316.147 23.3587 316.147 23.5054C316.147 23.6518 316.177 23.7967 316.237 23.9306C316.297 24.0645 316.384 24.1841 316.494 24.282C318.985 27.5869 321.456 30.9021 324 34.3007Z" fill="white"/>
<path d="M286.5 23.3438C286.719 22.3013 286.854 21.1648 287.157 20.1015C288.96 13.6899 296.31 11.021 301.366 14.9931C304.327 17.318 305.068 20.6124 304.922 24.3238H288.241C287.97 30.9544 292.755 34.9577 298.875 32.9143C299.868 32.5592 300.756 31.9626 301.461 31.1781C302.165 30.3936 302.663 29.4459 302.909 28.4209C303.233 27.3784 303.754 27.2012 304.744 27.5034C304.581 28.7726 304.132 29.9884 303.432 31.0592C302.731 32.13 301.797 33.0279 300.699 33.6857C298.886 34.6776 296.805 35.0704 294.755 34.8083C292.704 34.5461 290.789 33.6424 289.284 32.2262C287.794 30.5513 286.893 28.4351 286.719 26.2003C286.719 25.8459 286.583 25.4914 286.51 25.1578C286.503 24.5393 286.5 23.9346 286.5 23.3438ZM288.262 22.8954H303.347C303.253 18.0894 300.22 14.6803 296.175 14.6491C291.671 14.5865 288.45 17.9226 288.251 22.8746L288.262 22.8954Z" fill="white"/>
</g>
<g clip-path="url(#clip7_14_31)">
<path d="M374.25 0H348.75C342.537 0 337.5 5.0368 337.5 11.25V36.75C337.5 42.9632 342.537 48 348.75 48H374.25C380.463 48 385.5 42.9632 385.5 36.75V11.25C385.5 5.0368 380.463 0 374.25 0Z" fill="#2D333B"/>
<path d="M369.595 20.1733C367.619 11.4581 363.502 9.13794 362.451 7.49786C362.018 6.77537 361.634 6.02436 361.303 5.25C361.247 6.02422 361.145 6.51201 360.487 7.09912C359.166 8.27726 353.554 12.8504 353.082 22.7528C352.642 31.9856 359.869 37.6787 360.824 38.2673C361.558 38.6286 362.453 38.2749 362.889 37.9432C366.373 35.5522 371.133 29.1776 369.599 20.1733" fill="white"/>
<path d="M361.602 33.3508C361.42 35.6361 361.29 36.964 360.828 38.2699C360.828 38.2699 361.131 40.4455 361.344 42.75H362.098C362.278 41.1272 362.552 39.5162 362.92 37.9253C361.944 37.4453 361.64 35.3561 361.602 33.3508Z" fill="white"/>
<path d="M362.918 37.9266C361.933 37.4711 361.647 35.338 361.603 33.3508C361.847 30.0728 361.918 26.7842 361.816 23.4986C361.765 21.7748 361.841 7.53145 361.392 5.44617C361.699 6.15244 362.053 6.83744 362.451 7.49661C363.502 9.13799 367.621 11.4581 369.595 20.1733C371.133 29.1623 366.399 35.52 362.918 37.9266Z" fill="#EBEBEB"/>
</g>
</g>
<defs>
<clipPath id="clip0_14_31">
<rect width="385.5" height="48" fill="white"/>
</clipPath>
<clipPath id="clip1_14_31">
<rect width="48" height="48" fill="white"/>
</clipPath>
<clipPath id="clip2_14_31">
<rect width="48" height="48" fill="white" transform="translate(56.25)"/>
</clipPath>
<clipPath id="clip3_14_31">
<rect width="48" height="48" fill="white" transform="translate(112.5)"/>
</clipPath>
<clipPath id="clip4_14_31">
<rect width="48" height="48" fill="white" transform="translate(168.75)"/>
</clipPath>
<clipPath id="clip5_14_31">
<rect width="48" height="48" fill="white" transform="translate(225)"/>
</clipPath>
<clipPath id="clip6_14_31">
<rect width="48" height="48" fill="white" transform="translate(281.25)"/>
</clipPath>
<clipPath id="clip7_14_31">
<rect width="48" height="48" fill="white" transform="translate(337.5)"/>
</clipPath>
</defs>
</svg>
