<svg width="48" height="48" viewBox="0 0 48 48" fill="none" xmlns="http://www.w3.org/2000/svg">
<g clip-path="url(#clip0_14_108)">
<g clip-path="url(#clip1_14_108)">
<path d="M36.75 0H11.25C5.03679 0 0 5.03679 0 11.25V36.75C0 42.9632 5.03679 48 11.25 48H36.75C42.9632 48 48 42.9632 48 36.75V11.25C48 5.03679 42.9632 0 36.75 0Z" fill="#2D333B"/>
<path d="M9.5206 22.1724C9.5206 22.1724 24.0876 16.195 29.1388 14.0894C31.0757 13.2475 37.6438 10.5531 37.6438 10.5531C37.6438 10.5531 40.6757 9.37376 40.4226 12.2369C40.3382 13.4163 39.6651 17.5413 38.9919 22.0037C37.9813 28.3187 36.8863 35.2224 36.8863 35.2224C36.8863 35.2224 36.7176 37.1593 35.2869 37.4949C33.8563 37.8306 31.4976 36.3156 31.0776 35.9799C30.7401 35.7268 24.7626 31.9374 22.5726 30.0849C21.9838 29.5806 21.3088 28.5699 22.6569 27.3906C25.6888 24.6118 29.3094 21.1599 31.4976 18.9699C32.5082 17.9594 33.5188 15.6025 29.3076 18.4656C23.3301 22.5906 17.435 26.4643 17.435 26.4643C17.435 26.4643 16.0868 27.3062 13.5612 26.5487C11.0356 25.7912 8.0881 24.7806 8.0881 24.7806C8.0881 24.7806 6.06685 23.5168 9.51872 22.1706L9.5206 22.1724Z" fill="white"/>
</g>
</g>
<defs>
<clipPath id="clip0_14_108">
<rect width="48" height="48" fill="white"/>
</clipPath>
<clipPath id="clip1_14_108">
<rect width="48" height="48" fill="white"/>
</clipPath>
</defs>
</svg>
